<svg width="16" height="16" viewBox="0 0 16 16" fill="none" xmlns="http://www.w3.org/2000/svg">
<path fill-rule="evenodd" clip-rule="evenodd" d="M10.8636 6.40368L7.81828 10.4037C7.69295 10.5683 7.49895 10.6657 7.29228 10.667H7.28762C7.08295 10.667 6.88962 10.5723 6.76295 10.411L5.14162 8.33968C4.91495 8.05035 4.96562 7.63101 5.25562 7.40435C5.54495 7.17701 5.96495 7.22768 6.19162 7.51835L7.28028 8.90901L9.80295 5.59635C10.0256 5.30368 10.4436 5.24635 10.7376 5.46968C11.0303 5.69301 11.087 6.11101 10.8636 6.40368ZM8.00028 1.33368C4.31828 1.33368 1.33362 4.31835 1.33362 8.00035C1.33362 11.6817 4.31828 14.667 8.00028 14.667C11.6823 14.667 14.667 11.6817 14.667 8.00035C14.667 4.31835 11.6823 1.33368 8.00028 1.33368Z" fill="#EA7C69"/>
<mask id="mask0_3042_340" style="mask-type:luminance" maskUnits="userSpaceOnUse" x="1" y="1" width="14" height="14">
<path fill-rule="evenodd" clip-rule="evenodd" d="M10.8636 6.40368L7.81828 10.4037C7.69295 10.5683 7.49895 10.6657 7.29228 10.667H7.28762C7.08295 10.667 6.88962 10.5723 6.76295 10.411L5.14162 8.33968C4.91495 8.05035 4.96562 7.63101 5.25562 7.40435C5.54495 7.17701 5.96495 7.22768 6.19162 7.51835L7.28028 8.90901L9.80295 5.59635C10.0256 5.30368 10.4436 5.24635 10.7376 5.46968C11.0303 5.69301 11.087 6.11101 10.8636 6.40368ZM8.00028 1.33368C4.31828 1.33368 1.33362 4.31835 1.33362 8.00035C1.33362 11.6817 4.31828 14.667 8.00028 14.667C11.6823 14.667 14.667 11.6817 14.667 8.00035C14.667 4.31835 11.6823 1.33368 8.00028 1.33368Z" fill="white"/>
</mask>
<g mask="url(#mask0_3042_340)">
<rect width="16" height="16" fill="#EA7C69"/>
</g>
</svg>
